<svg xmlns="http://www.w3.org/2000/svg" width="340" height="200" viewBox="0 0 340 200"><style>* {
          font-family: Ubuntu, 'Lucida Grande', Arial, Helvetica, sans-serif
            }</style><linearGradient id="grad" x1="0" x2="1" y1="0" y2="1"><stop offset="0%" stop-color="#ff02ef"></stop><stop offset="25%" stop-color="#c901f4"></stop><stop offset="100%" stop-color="#4f00ff"></stop></linearGradient><rect x="1.5" y="1.5" rx="5" ry="5" height="98%" width="98%" fill="url(#grad)" stroke-opacity="1"></rect><text x="30" y="40" style="font-size: 22px; fill: #ffffff;">Top Languages by Commit</text><g transform="translate(0,40)"><g transform="translate(40,0)"><rect y="18" width="14" height="14" fill="#ff3e00" stroke="#ffffff" style="stroke-width: 1px;"></rect><rect y="43.2" width="14" height="14" fill="#3178c6" stroke="#ffffff" style="stroke-width: 1px;"></rect><rect y="68.4" width="14" height="14" fill="#b07219" stroke="#ffffff" style="stroke-width: 1px;"></rect><rect y="93.60000000000002" width="14" height="14" fill="#f1e05a" stroke="#ffffff" style="stroke-width: 1px;"></rect><text x="16.8" y="30" style="fill: #ffffff; font-size: 14px;">Svelte</text><text x="16.8" y="55.2" style="fill: #ffffff; font-size: 14px;">TypeScript</text><text x="16.8" y="80.4" style="fill: #ffffff; font-size: 14px;">Java</text><text x="16.8" y="105.60000000000002" style="fill: #ffffff; font-size: 14px;">JavaScript</text></g><g transform="translate( 230, 80 )"><g class="arc"><path d="M3.67394039744206e-15,-60A60,60,0,1,1,-51.961524227066306,30.00000000000002L-30.310889132455348,17.50000000000001A35,35,0,1,0,2.1431318985078682e-15,-35Z" style="fill: #ff3e00; stroke-width: 2px;" stroke="#ffffff"></path></g><g class="arc"><path d="M-51.961524227066306,30.00000000000002A60,60,0,0,1,-26.47326607459333,-53.84390572148148L-15.442738543512776,-31.40894500419753A35,35,0,0,0,-30.310889132455348,17.50000000000001Z" style="fill: #3178c6; stroke-width: 2px;" stroke="#ffffff"></path></g><g class="arc"><path d="M-26.47326607459333,-53.84390572148148A60,60,0,0,1,-9.103879504999961,-59.30530649072174L-5.310596377916643,-34.59476211958768A35,35,0,0,0,-15.442738543512776,-31.40894500419753Z" style="fill: #b07219; stroke-width: 2px;" stroke="#ffffff"></path></g><g class="arc"><path d="M-9.103879504999961,-59.30530649072174A60,60,0,0,1,-6.431252637433369e-14,-60L-3.7515640385027985e-14,-35A35,35,0,0,0,-5.310596377916643,-34.59476211958768Z" style="fill: #f1e05a; stroke-width: 2px;" stroke="#ffffff"></path></g></g></g></svg>