<svg xmlns="http://www.w3.org/2000/svg" width="340" height="200" viewBox="0 0 340 200"><style>* {
          font-family: Ubuntu, 'Lucida Grande', Arial, Helvetica, sans-serif
            }</style><linearGradient id="grad" x1="0" x2="1" y1="0" y2="1"><stop offset="0%" stop-color="#ff02ef"></stop><stop offset="25%" stop-color="#c901f4"></stop><stop offset="100%" stop-color="#4f00ff"></stop></linearGradient><rect x="1.5" y="1.5" rx="5" ry="5" height="98%" width="98%" fill="url(#grad)" stroke-opacity="1"></rect><text x="30" y="40" style="font-size: 22px; fill: #ffffff;">Top Languages by Commit</text><g transform="translate(0,40)"><g transform="translate(40,0)"><rect y="18" width="14" height="14" fill="#ff3e00" stroke="#ffffff" style="stroke-width: 1px;"></rect><rect y="43.2" width="14" height="14" fill="#b07219" stroke="#ffffff" style="stroke-width: 1px;"></rect><rect y="68.4" width="14" height="14" fill="#3178c6" stroke="#ffffff" style="stroke-width: 1px;"></rect><rect y="93.60000000000002" width="14" height="14" fill="#e34c26" stroke="#ffffff" style="stroke-width: 1px;"></rect><rect y="118.80000000000001" width="14" height="14" fill="#f1e05a" stroke="#ffffff" style="stroke-width: 1px;"></rect><text x="16.8" y="30" style="fill: #ffffff; font-size: 14px;">Svelte</text><text x="16.8" y="55.2" style="fill: #ffffff; font-size: 14px;">Java</text><text x="16.8" y="80.4" style="fill: #ffffff; font-size: 14px;">TypeScript</text><text x="16.8" y="105.60000000000002" style="fill: #ffffff; font-size: 14px;">HTML</text><text x="16.8" y="130.8" style="fill: #ffffff; font-size: 14px;">JavaScript</text></g><g transform="translate( 230, 80 )"><g class="arc"><path d="M3.67394039744206e-15,-60A60,60,0,1,1,-26.92795081202773,53.61795841940474L-15.707971307016177,31.27714241131943A35,35,0,1,0,2.1431318985078682e-15,-35Z" style="fill: #ff3e00; stroke-width: 2px;" stroke="#ffffff"></path></g><g class="arc"><path d="M-26.92795081202773,53.61795841940474A60,60,0,0,1,-53.085707830599475,-27.962611182152312L-30.966662901183028,-16.31152318958885A35,35,0,0,0,-15.707971307016177,31.27714241131943Z" style="fill: #b07219; stroke-width: 2px;" stroke="#ffffff"></path></g><g class="arc"><path d="M-53.085707830599475,-27.962611182152312A60,60,0,0,1,-36.756032711592205,-47.42356017112553L-21.441019081762118,-27.66374343315656A35,35,0,0,0,-30.966662901183028,-16.31152318958885Z" style="fill: #3178c6; stroke-width: 2px;" stroke="#ffffff"></path></g><g class="arc"><path d="M-36.756032711592205,-47.42356017112553A60,60,0,0,1,-18.31955986170685,-57.134873120304896L-10.686409919328995,-33.32867598684452A35,35,0,0,0,-21.441019081762118,-27.66374343315656Z" style="fill: #e34c26; stroke-width: 2px;" stroke="#ffffff"></path></g><g class="arc"><path d="M-18.31955986170685,-57.134873120304896A60,60,0,0,1,-6.431252637433369e-14,-60L-3.7515640385027985e-14,-35A35,35,0,0,0,-10.686409919328995,-33.32867598684452Z" style="fill: #f1e05a; stroke-width: 2px;" stroke="#ffffff"></path></g></g></g></svg>