<svg xmlns="http://www.w3.org/2000/svg" width="340" height="200" viewBox="0 0 340 200"><style>* {
          font-family: Ubuntu, 'Lucida Grande', Arial, Helvetica, sans-serif
            }</style><linearGradient id="grad" x1="0" x2="1" y1="0" y2="1"><stop offset="0%" stop-color="#ff02ef"></stop><stop offset="25%" stop-color="#c901f4"></stop><stop offset="100%" stop-color="#4f00ff"></stop></linearGradient><rect x="1.5" y="1.5" rx="5" ry="5" height="98%" width="98%" fill="url(#grad)" stroke-opacity="1"></rect><text x="30" y="40" style="font-size: 22px; fill: #ffffff;">Top Languages by Commit</text><g transform="translate(0,40)"><g transform="translate(40,0)"><rect y="18" width="14" height="14" fill="#2b7489" stroke="#ffffff" style="stroke-width: 1px;"></rect><rect y="43.2" width="14" height="14" fill="#f1e05a" stroke="#ffffff" style="stroke-width: 1px;"></rect><rect y="68.4" width="14" height="14" fill="#b07219" stroke="#ffffff" style="stroke-width: 1px;"></rect><rect y="93.60000000000002" width="14" height="14" fill="#e34c26" stroke="#ffffff" style="stroke-width: 1px;"></rect><rect y="118.80000000000001" width="14" height="14" fill="#41b883" stroke="#ffffff" style="stroke-width: 1px;"></rect><text x="16.8" y="30" style="fill: #ffffff; font-size: 14px;">TypeScript</text><text x="16.8" y="55.2" style="fill: #ffffff; font-size: 14px;">JavaScript</text><text x="16.8" y="80.4" style="fill: #ffffff; font-size: 14px;">Java</text><text x="16.8" y="105.60000000000002" style="fill: #ffffff; font-size: 14px;">HTML</text><text x="16.8" y="130.8" style="fill: #ffffff; font-size: 14px;">Vue</text></g><g transform="translate( 230, 80 )"><g class="arc"><path d="M3.67394039744206e-15,-60A60,60,0,1,1,-5.287949493816089,59.766525665717346L-3.084637204726052,34.86380663833512A35,35,0,1,0,2.1431318985078682e-15,-35Z" style="fill: #2b7489; stroke-width: 2px;" stroke="#ffffff"></path></g><g class="arc"><path d="M-5.287949493816089,59.766525665717346A60,60,0,0,1,-12.612776502508307,-58.659337439982856L-7.357452959796513,-34.21794683999A35,35,0,0,0,-3.084637204726052,34.86380663833512Z" style="fill: #f1e05a; stroke-width: 2px;" stroke="#ffffff"></path></g><g class="arc"><path d="M-12.612776502508307,-58.659337439982856A60,60,0,0,1,-4.232337542538679,-59.850541509045826L-2.468863566480896,-34.91281588027673A35,35,0,0,0,-7.357452959796513,-34.21794683999Z" style="fill: #b07219; stroke-width: 2px;" stroke="#ffffff"></path></g><g class="arc"><path d="M-4.232337542538679,-59.850541509045826A60,60,0,0,1,-1.058908838587756,-59.99065520621991L-0.6176968225095244,-34.99454887029495A35,35,0,0,0,-2.468863566480896,-34.91281588027673Z" style="fill: #e34c26; stroke-width: 2px;" stroke="#ffffff"></path></g><g class="arc"><path d="M-1.058908838587756,-59.99065520621991A60,60,0,0,1,-6.431252637433369e-14,-60L-3.7515640385027985e-14,-35A35,35,0,0,0,-0.6176968225095244,-34.99454887029495Z" style="fill: #41b883; stroke-width: 2px;" stroke="#ffffff"></path></g></g></g></svg>