<svg xmlns="http://www.w3.org/2000/svg" width="340" height="200" viewBox="0 0 340 200"><style>* {
          font-family: Ubuntu, 'Lucida Grande', Arial, Helvetica, sans-serif
            }</style><linearGradient id="grad" x1="0" x2="1" y1="0" y2="1"><stop offset="0%" stop-color="#ff02ef"></stop><stop offset="25%" stop-color="#c901f4"></stop><stop offset="100%" stop-color="#4f00ff"></stop></linearGradient><rect x="1.5" y="1.5" rx="5" ry="5" height="98%" width="98%" fill="url(#grad)" stroke-opacity="1"></rect><text x="30" y="40" style="font-size: 22px; fill: #ffffff;">Top Languages by Commit</text><g transform="translate(0,40)"><g transform="translate(40,0)"><rect y="18" width="14" height="14" fill="#2b7489" stroke="#ffffff" style="stroke-width: 1px;"></rect><rect y="43.2" width="14" height="14" fill="#f1e05a" stroke="#ffffff" style="stroke-width: 1px;"></rect><rect y="68.4" width="14" height="14" fill="#b07219" stroke="#ffffff" style="stroke-width: 1px;"></rect><rect y="93.60000000000002" width="14" height="14" fill="#e34c26" stroke="#ffffff" style="stroke-width: 1px;"></rect><rect y="118.80000000000001" width="14" height="14" fill="#41b883" stroke="#ffffff" style="stroke-width: 1px;"></rect><text x="16.8" y="30" style="fill: #ffffff; font-size: 14px;">TypeScript</text><text x="16.8" y="55.2" style="fill: #ffffff; font-size: 14px;">JavaScript</text><text x="16.8" y="80.4" style="fill: #ffffff; font-size: 14px;">Java</text><text x="16.8" y="105.60000000000002" style="fill: #ffffff; font-size: 14px;">HTML</text><text x="16.8" y="130.8" style="fill: #ffffff; font-size: 14px;">Vue</text></g><g transform="translate( 230, 80 )"><g class="arc"><path d="M3.67394039744206e-15,-60A60,60,0,1,1,-4.747022549605477,59.81192002363356L-2.7690964872698616,34.89028668045291A35,35,0,1,0,2.1431318985078682e-15,-35Z" style="fill: #2b7489; stroke-width: 2px;" stroke="#ffffff"></path></g><g class="arc"><path d="M-4.747022549605477,59.81192002363356A60,60,0,0,1,-13.608506334506147,-58.43636329669828L-7.938295361795253,-34.08787858974067A35,35,0,0,0,-2.7690964872698616,34.89028668045291Z" style="fill: #f1e05a; stroke-width: 2px;" stroke="#ffffff"></path></g><g class="arc"><path d="M-13.608506334506147,-58.43636329669828A60,60,0,0,1,-4.220501874834739,-59.851377293463486L-2.4619594269869314,-34.91330342118704A35,35,0,0,0,-7.938295361795253,-34.08787858974067Z" style="fill: #b07219; stroke-width: 2px;" stroke="#ffffff"></path></g><g class="arc"><path d="M-4.220501874834739,-59.851377293463486A60,60,0,0,1,-1.0559430140852073,-59.99070748333449L-0.6159667582163709,-34.994579365278454A35,35,0,0,0,-2.4619594269869314,-34.91330342118704Z" style="fill: #e34c26; stroke-width: 2px;" stroke="#ffffff"></path></g><g class="arc"><path d="M-1.0559430140852073,-59.99070748333449A60,60,0,0,1,4.226888398968133e-14,-60L2.4656848993980778e-14,-35A35,35,0,0,0,-0.6159667582163709,-34.994579365278454Z" style="fill: #41b883; stroke-width: 2px;" stroke="#ffffff"></path></g></g></g></svg>