<svg xmlns="http://www.w3.org/2000/svg" width="340" height="200" viewBox="0 0 340 200"><style>* {
          font-family: Ubuntu, 'Lucida Grande', Arial, Helvetica, sans-serif
            }</style><linearGradient id="grad" x1="0" x2="1" y1="0" y2="1"><stop offset="0%" stop-color="#ff02ef"></stop><stop offset="25%" stop-color="#c901f4"></stop><stop offset="100%" stop-color="#4f00ff"></stop></linearGradient><rect x="1.5" y="1.5" rx="5" ry="5" height="98%" width="98%" fill="url(#grad)" stroke-opacity="1"></rect><text x="30" y="40" style="font-size: 22px; fill: #ffffff;">Top Languages by Commit</text><g transform="translate(0,40)"><g transform="translate(40,0)"><rect y="18" width="14" height="14" fill="#b07219" stroke="#ffffff" style="stroke-width: 1px;"></rect><rect y="43.2" width="14" height="14" fill="#f1e05a" stroke="#ffffff" style="stroke-width: 1px;"></rect><rect y="68.4" width="14" height="14" fill="#ff3e00" stroke="#ffffff" style="stroke-width: 1px;"></rect><rect y="93.60000000000002" width="14" height="14" fill="#3178c6" stroke="#ffffff" style="stroke-width: 1px;"></rect><rect y="118.80000000000001" width="14" height="14" fill="#e34c26" stroke="#ffffff" style="stroke-width: 1px;"></rect><text x="16.8" y="30" style="fill: #ffffff; font-size: 14px;">Java</text><text x="16.8" y="55.2" style="fill: #ffffff; font-size: 14px;">JavaScript</text><text x="16.8" y="80.4" style="fill: #ffffff; font-size: 14px;">Svelte</text><text x="16.8" y="105.60000000000002" style="fill: #ffffff; font-size: 14px;">TypeScript</text><text x="16.8" y="130.8" style="fill: #ffffff; font-size: 14px;">HTML</text></g><g transform="translate( 230, 80 )"><g class="arc"><path d="M3.67394039744206e-15,-60A60,60,0,0,1,15.691729258796078,57.91174002625584L9.153508734297713,33.78184834864924A35,35,0,0,0,2.1431318985078682e-15,-35Z" style="fill: #b07219; stroke-width: 2px;" stroke="#ffffff"></path></g><g class="arc"><path d="M15.691729258796078,57.91174002625584A60,60,0,0,1,-59.54904808990744,7.342402303462501L-34.73694471911267,4.283068010353126A35,35,0,0,0,9.153508734297713,33.78184834864924Z" style="fill: #f1e05a; stroke-width: 2px;" stroke="#ffffff"></path></g><g class="arc"><path d="M-59.54904808990744,7.342402303462501A60,60,0,0,1,-43.38478666384267,-41.44587176224985L-25.30779222057489,-24.176758527979082A35,35,0,0,0,-34.73694471911267,4.283068010353126Z" style="fill: #ff3e00; stroke-width: 2px;" stroke="#ffffff"></path></g><g class="arc"><path d="M-43.38478666384267,-41.44587176224985A60,60,0,0,1,-3.4620067487666057,-59.90003763998396L-2.01950393678052,-34.94168862332398A35,35,0,0,0,-25.30779222057489,-24.176758527979082Z" style="fill: #3178c6; stroke-width: 2px;" stroke="#ffffff"></path></g><g class="arc"><path d="M-3.4620067487666057,-59.90003763998396A60,60,0,0,1,-1.1021821192326178e-14,-60L-6.429395695523604e-15,-35A35,35,0,0,0,-2.01950393678052,-34.94168862332398Z" style="fill: #e34c26; stroke-width: 2px;" stroke="#ffffff"></path></g></g></g></svg>