<svg xmlns="http://www.w3.org/2000/svg" width="340" height="200" viewBox="0 0 340 200"><style>* {
          font-family: Ubuntu, 'Lucida Grande', Arial, Helvetica, sans-serif
            }</style><linearGradient id="grad" x1="0" x2="1" y1="0" y2="1"><stop offset="0%" stop-color="#ff02ef"></stop><stop offset="25%" stop-color="#c901f4"></stop><stop offset="100%" stop-color="#4f00ff"></stop></linearGradient><rect x="1.5" y="1.5" rx="5" ry="5" height="98%" width="98%" fill="url(#grad)" stroke-opacity="1"></rect><text x="30" y="40" style="font-size: 22px; fill: #ffffff;">Top Languages by Commit</text><g transform="translate(0,40)"><g transform="translate(40,0)"><rect y="18" width="14" height="14" fill="#f1e05a" stroke="#ffffff" style="stroke-width: 1px;"></rect><rect y="43.2" width="14" height="14" fill="#b07219" stroke="#ffffff" style="stroke-width: 1px;"></rect><rect y="68.4" width="14" height="14" fill="#3178c6" stroke="#ffffff" style="stroke-width: 1px;"></rect><rect y="93.60000000000002" width="14" height="14" fill="#ff3e00" stroke="#ffffff" style="stroke-width: 1px;"></rect><rect y="118.80000000000001" width="14" height="14" fill="#ff5a03" stroke="#ffffff" style="stroke-width: 1px;"></rect><text x="16.8" y="30" style="fill: #ffffff; font-size: 14px;">JavaScript</text><text x="16.8" y="55.2" style="fill: #ffffff; font-size: 14px;">Java</text><text x="16.8" y="80.4" style="fill: #ffffff; font-size: 14px;">TypeScript</text><text x="16.8" y="105.60000000000002" style="fill: #ffffff; font-size: 14px;">Svelte</text><text x="16.8" y="130.8" style="fill: #ffffff; font-size: 14px;">Astro</text></g><g transform="translate( 230, 80 )"><g class="arc"><path d="M3.67394039744206e-15,-60A60,60,0,0,1,3.159540273012578,59.91675312684434L1.8430651592573373,34.95143932399253A35,35,0,0,0,2.1431318985078682e-15,-35Z" style="fill: #f1e05a; stroke-width: 2px;" stroke="#ffffff"></path></g><g class="arc"><path d="M3.159540273012578,59.91675312684434A60,60,0,0,1,-58.857237509865236,-11.654423739821402L-34.333388547421386,-6.798413848229151A35,35,0,0,0,1.8430651592573373,34.95143932399253Z" style="fill: #b07219; stroke-width: 2px;" stroke="#ffffff"></path></g><g class="arc"><path d="M-58.857237509865236,-11.654423739821402A60,60,0,0,1,-18.96770596654181,-56.922984201171445L-11.06449514714939,-33.20507411735001A35,35,0,0,0,-34.333388547421386,-6.798413848229151Z" style="fill: #3178c6; stroke-width: 2px;" stroke="#ffffff"></path></g><g class="arc"><path d="M-18.96770596654181,-56.922984201171445A60,60,0,0,1,-4.653640742082225,-59.81925800144659L-2.7146237662146313,-34.894567167510516A35,35,0,0,0,-11.06449514714939,-33.20507411735001Z" style="fill: #ff3e00; stroke-width: 2px;" stroke="#ffffff"></path></g><g class="arc"><path d="M-4.653640742082225,-59.81925800144659A60,60,0,0,1,4.226888398968133e-14,-60L2.4656848993980778e-14,-35A35,35,0,0,0,-2.7146237662146313,-34.894567167510516Z" style="fill: #ff5a03; stroke-width: 2px;" stroke="#ffffff"></path></g></g></g></svg>