<svg xmlns="http://www.w3.org/2000/svg" width="340" height="200" viewBox="0 0 340 200"><style>* {
          font-family: Ubuntu, 'Lucida Grande', Arial, Helvetica, sans-serif
            }</style><linearGradient id="grad" x1="0" x2="1" y1="0" y2="1"><stop offset="0%" stop-color="#ff02ef"></stop><stop offset="25%" stop-color="#c901f4"></stop><stop offset="100%" stop-color="#4f00ff"></stop></linearGradient><rect x="1.5" y="1.5" rx="5" ry="5" height="98%" width="98%" fill="url(#grad)" stroke-opacity="1"></rect><text x="30" y="40" style="font-size: 22px; fill: #ffffff;">Top Languages by Commit</text><g transform="translate(0,40)"><g transform="translate(40,0)"><rect y="18" width="14" height="14" fill="#3178c6" stroke="#ffffff" style="stroke-width: 1px;"></rect><rect y="43.2" width="14" height="14" fill="#f1e05a" stroke="#ffffff" style="stroke-width: 1px;"></rect><rect y="68.4" width="14" height="14" fill="#b07219" stroke="#ffffff" style="stroke-width: 1px;"></rect><rect y="93.60000000000002" width="14" height="14" fill="#e34c26" stroke="#ffffff" style="stroke-width: 1px;"></rect><rect y="118.80000000000001" width="14" height="14" fill="#41b883" stroke="#ffffff" style="stroke-width: 1px;"></rect><text x="16.8" y="30" style="fill: #ffffff; font-size: 14px;">TypeScript</text><text x="16.8" y="55.2" style="fill: #ffffff; font-size: 14px;">JavaScript</text><text x="16.8" y="80.4" style="fill: #ffffff; font-size: 14px;">Java</text><text x="16.8" y="105.60000000000002" style="fill: #ffffff; font-size: 14px;">HTML</text><text x="16.8" y="130.8" style="fill: #ffffff; font-size: 14px;">Vue</text></g><g transform="translate( 230, 80 )"><g class="arc"><path d="M3.67394039744206e-15,-60A60,60,0,1,1,-0.5026489448862285,59.99789449670884L-0.2932118845169666,34.99877178974682A35,35,0,1,0,2.1431318985078682e-15,-35Z" style="fill: #3178c6; stroke-width: 2px;" stroke="#ffffff"></path></g><g class="arc"><path d="M-0.5026489448862285,59.99789449670884A60,60,0,0,1,-13.945618358507078,-58.3568310362966L-8.134944042462463,-34.04148477117302A35,35,0,0,0,-0.2932118845169666,34.99877178974682Z" style="fill: #f1e05a; stroke-width: 2px;" stroke="#ffffff"></path></g><g class="arc"><path d="M-13.945618358507078,-58.3568310362966A60,60,0,0,1,-4.0182288617391215,-59.86529743361079L-2.3439668360144874,-34.921423502939625A35,35,0,0,0,-8.134944042462463,-34.04148477117302Z" style="fill: #b07219; stroke-width: 2px;" stroke="#ffffff"></path></g><g class="arc"><path d="M-4.0182288617391215,-59.86529743361079A60,60,0,0,1,-1.0052626121388835,-59.991578134606826L-0.5864031904143487,-34.995087245187314A35,35,0,0,0,-2.3439668360144874,-34.921423502939625Z" style="fill: #e34c26; stroke-width: 2px;" stroke="#ffffff"></path></g><g class="arc"><path d="M-1.0052626121388835,-59.991578134606826A60,60,0,0,1,-1.1021821192326178e-14,-60L-6.429395695523604e-15,-35A35,35,0,0,0,-0.5864031904143487,-34.995087245187314Z" style="fill: #41b883; stroke-width: 2px;" stroke="#ffffff"></path></g></g></g></svg>