<svg xmlns="http://www.w3.org/2000/svg" width="340" height="200" viewBox="0 0 340 200"><style>* {
          font-family: Ubuntu, 'Lucida Grande', Arial, Helvetica, sans-serif
            }</style><linearGradient id="grad" x1="0" x2="1" y1="0" y2="1"><stop offset="0%" stop-color="#ff02ef"></stop><stop offset="25%" stop-color="#c901f4"></stop><stop offset="100%" stop-color="#4f00ff"></stop></linearGradient><rect x="1.5" y="1.5" rx="5" ry="5" height="98%" width="98%" fill="url(#grad)" stroke-opacity="1"></rect><text x="30" y="40" style="font-size: 22px; fill: #ffffff;">Top Languages by Commit</text><g transform="translate(0,40)"><g transform="translate(40,0)"><rect y="18" width="14" height="14" fill="#ff3e00" stroke="#ffffff" style="stroke-width: 1px;"></rect><rect y="43.2" width="14" height="14" fill="#3178c6" stroke="#ffffff" style="stroke-width: 1px;"></rect><rect y="68.4" width="14" height="14" fill="#f1e05a" stroke="#ffffff" style="stroke-width: 1px;"></rect><rect y="93.60000000000002" width="14" height="14" fill="#00ADD8" stroke="#ffffff" style="stroke-width: 1px;"></rect><rect y="118.80000000000001" width="14" height="14" fill="#e34c26" stroke="#ffffff" style="stroke-width: 1px;"></rect><text x="16.8" y="30" style="fill: #ffffff; font-size: 14px;">Svelte</text><text x="16.8" y="55.2" style="fill: #ffffff; font-size: 14px;">TypeScript</text><text x="16.8" y="80.4" style="fill: #ffffff; font-size: 14px;">JavaScript</text><text x="16.8" y="105.60000000000002" style="fill: #ffffff; font-size: 14px;">Go</text><text x="16.8" y="130.8" style="fill: #ffffff; font-size: 14px;">HTML</text></g><g transform="translate( 230, 80 )"><g class="arc"><path d="M3.67394039744206e-15,-60A60,60,0,1,1,-2.037398088044921,59.96539843135231L-1.188482218026204,34.97981575162218A35,35,0,1,0,2.1431318985078682e-15,-35Z" style="fill: #ff3e00; stroke-width: 2px;" stroke="#ffffff"></path></g><g class="arc"><path d="M-2.037398088044921,59.96539843135231A60,60,0,0,1,-36.08629388209726,-47.93515822290472L-21.05033809789007,-27.96217563002775A35,35,0,0,0,-1.188482218026204,34.97981575162218Z" style="fill: #3178c6; stroke-width: 2px;" stroke="#ffffff"></path></g><g class="arc"><path d="M-36.08629388209726,-47.93515822290472A60,60,0,0,1,-18.055843820403293,-57.21876006986873L-10.532575561901922,-33.37761004075676A35,35,0,0,0,-21.05033809789007,-27.96217563002775Z" style="fill: #f1e05a; stroke-width: 2px;" stroke="#ffffff"></path></g><g class="arc"><path d="M-18.055843820403293,-57.21876006986873A60,60,0,0,1,-8.126109554535937,-59.44717271248213L-4.740230573479296,-34.677517415614574A35,35,0,0,0,-10.532575561901922,-33.37761004075676Z" style="fill: #00ADD8; stroke-width: 2px;" stroke="#ffffff"></path></g><g class="arc"><path d="M-8.126109554535937,-59.44717271248213A60,60,0,0,1,4.226888398968133e-14,-60L2.4656848993980778e-14,-35A35,35,0,0,0,-4.740230573479296,-34.677517415614574Z" style="fill: #e34c26; stroke-width: 2px;" stroke="#ffffff"></path></g></g></g></svg>