<svg xmlns="http://www.w3.org/2000/svg" width="340" height="200" viewBox="0 0 340 200"><style>* {
          font-family: Ubuntu, 'Lucida Grande', Arial, Helvetica, sans-serif
            }</style><linearGradient id="grad" x1="0" x2="1" y1="0" y2="1"><stop offset="0%" stop-color="#ff02ef"></stop><stop offset="25%" stop-color="#c901f4"></stop><stop offset="100%" stop-color="#4f00ff"></stop></linearGradient><rect x="1.5" y="1.5" rx="5" ry="5" height="98%" width="98%" fill="url(#grad)" stroke-opacity="1"></rect><text x="30" y="40" style="font-size: 22px; fill: #ffffff;">Top Languages by Commit</text><g transform="translate(0,40)"><g transform="translate(40,0)"><rect y="18" width="14" height="14" fill="#b07219" stroke="#ffffff" style="stroke-width: 1px;"></rect><rect y="43.2" width="14" height="14" fill="#f1e05a" stroke="#ffffff" style="stroke-width: 1px;"></rect><rect y="68.4" width="14" height="14" fill="#3178c6" stroke="#ffffff" style="stroke-width: 1px;"></rect><rect y="93.60000000000002" width="14" height="14" fill="#ff3e00" stroke="#ffffff" style="stroke-width: 1px;"></rect><rect y="118.80000000000001" width="14" height="14" fill="#89e051" stroke="#ffffff" style="stroke-width: 1px;"></rect><text x="16.8" y="30" style="fill: #ffffff; font-size: 14px;">Java</text><text x="16.8" y="55.2" style="fill: #ffffff; font-size: 14px;">JavaScript</text><text x="16.8" y="80.4" style="fill: #ffffff; font-size: 14px;">TypeScript</text><text x="16.8" y="105.60000000000002" style="fill: #ffffff; font-size: 14px;">Svelte</text><text x="16.8" y="130.8" style="fill: #ffffff; font-size: 14px;">Shell</text></g><g transform="translate( 230, 80 )"><g class="arc"><path d="M3.67394039744206e-15,-60A60,60,0,0,1,33.95682565983572,49.46649362050561L19.80814830157084,28.85545461196161A35,35,0,0,0,2.1431318985078682e-15,-35Z" style="fill: #b07219; stroke-width: 2px;" stroke="#ffffff"></path></g><g class="arc"><path d="M33.95682565983572,49.46649362050561A60,60,0,0,1,-58.260608318127424,-14.342298225937899L-33.985354852240995,-8.366340631797108A35,35,0,0,0,19.80814830157084,28.85545461196161Z" style="fill: #f1e05a; stroke-width: 2px;" stroke="#ffffff"></path></g><g class="arc"><path d="M-58.260608318127424,-14.342298225937899A60,60,0,0,1,-25.053804968908096,-54.51886697813809L-14.614719565196388,-31.80267240391389A35,35,0,0,0,-33.985354852240995,-8.366340631797108Z" style="fill: #3178c6; stroke-width: 2px;" stroke="#ffffff"></path></g><g class="arc"><path d="M-25.053804968908096,-54.51886697813809A60,60,0,0,1,-0.4456118825972123,-59.99834522759847L-0.25994026484837385,-34.9990347160991A35,35,0,0,0,-14.614719565196388,-31.80267240391389Z" style="fill: #ff3e00; stroke-width: 2px;" stroke="#ffffff"></path></g><g class="arc"><path d="M-0.4456118825972123,-59.99834522759847A60,60,0,0,1,-6.431252637433369e-14,-60L-3.7515640385027985e-14,-35A35,35,0,0,0,-0.25994026484837385,-34.9990347160991Z" style="fill: #89e051; stroke-width: 2px;" stroke="#ffffff"></path></g></g></g></svg>