<svg xmlns="http://www.w3.org/2000/svg" width="340" height="200" viewBox="0 0 340 200"><style>* {
          font-family: Ubuntu, 'Lucida Grande', Arial, Helvetica, sans-serif
            }</style><linearGradient id="grad" x1="0" x2="1" y1="0" y2="1"><stop offset="0%" stop-color="#ff02ef"></stop><stop offset="25%" stop-color="#c901f4"></stop><stop offset="100%" stop-color="#4f00ff"></stop></linearGradient><rect x="1.5" y="1.5" rx="5" ry="5" height="98%" width="98%" fill="url(#grad)" stroke-opacity="1"></rect><text x="30" y="40" style="font-size: 22px; fill: #ffffff;">Top Languages by Commit</text><g transform="translate(0,40)"><g transform="translate(40,0)"><rect y="18" width="14" height="14" fill="#f1e05a" stroke="#ffffff" style="stroke-width: 1px;"></rect><rect y="43.2" width="14" height="14" fill="#b07219" stroke="#ffffff" style="stroke-width: 1px;"></rect><rect y="68.4" width="14" height="14" fill="#3178c6" stroke="#ffffff" style="stroke-width: 1px;"></rect><rect y="93.60000000000002" width="14" height="14" fill="#ff3e00" stroke="#ffffff" style="stroke-width: 1px;"></rect><rect y="118.80000000000001" width="14" height="14" fill="#ff5a03" stroke="#ffffff" style="stroke-width: 1px;"></rect><text x="16.8" y="30" style="fill: #ffffff; font-size: 14px;">JavaScript</text><text x="16.8" y="55.2" style="fill: #ffffff; font-size: 14px;">Java</text><text x="16.8" y="80.4" style="fill: #ffffff; font-size: 14px;">TypeScript</text><text x="16.8" y="105.60000000000002" style="fill: #ffffff; font-size: 14px;">Svelte</text><text x="16.8" y="130.8" style="fill: #ffffff; font-size: 14px;">Astro</text></g><g transform="translate( 230, 80 )"><g class="arc"><path d="M3.67394039744206e-15,-60A60,60,0,1,1,-7.905088869243271,59.47696671796037L-4.611301840391908,34.69489725214355A35,35,0,1,0,2.1431318985078682e-15,-35Z" style="fill: #f1e05a; stroke-width: 2px;" stroke="#ffffff"></path></g><g class="arc"><path d="M-7.905088869243271,59.47696671796037A60,60,0,0,1,-56.962564410918716,-18.848508050557648L-33.22816257303592,-10.994963029491961A35,35,0,0,0,-4.611301840391908,34.69489725214355Z" style="fill: #b07219; stroke-width: 2px;" stroke="#ffffff"></path></g><g class="arc"><path d="M-56.962564410918716,-18.848508050557648A60,60,0,0,1,-18.46406294818632,-57.08833838399409L-10.77070338644202,-33.30153072399656A35,35,0,0,0,-33.22816257303592,-10.994963029491961Z" style="fill: #3178c6; stroke-width: 2px;" stroke="#ffffff"></path></g><g class="arc"><path d="M-18.46406294818632,-57.08833838399409A60,60,0,0,1,-4.526061868444635,-59.829046156219235L-2.6402027565927035,-34.90027692446122A35,35,0,0,0,-10.77070338644202,-33.30153072399656Z" style="fill: #ff3e00; stroke-width: 2px;" stroke="#ffffff"></path></g><g class="arc"><path d="M-4.526061868444635,-59.829046156219235A60,60,0,0,1,-6.431252637433369e-14,-60L-3.7515640385027985e-14,-35A35,35,0,0,0,-2.6402027565927035,-34.90027692446122Z" style="fill: #ff5a03; stroke-width: 2px;" stroke="#ffffff"></path></g></g></g></svg>