<svg xmlns="http://www.w3.org/2000/svg" width="340" height="200" viewBox="0 0 340 200"><style>* {
          font-family: Ubuntu, 'Lucida Grande', Arial, Helvetica, sans-serif
            }</style><linearGradient id="grad" x1="0" x2="1" y1="0" y2="1"><stop offset="0%" stop-color="#ff02ef"></stop><stop offset="25%" stop-color="#c901f4"></stop><stop offset="100%" stop-color="#4f00ff"></stop></linearGradient><rect x="1.5" y="1.5" rx="5" ry="5" height="98%" width="98%" fill="url(#grad)" stroke-opacity="1"></rect><text x="30" y="40" style="font-size: 22px; fill: #ffffff;">Top Languages by Commit</text><g transform="translate(0,40)"><g transform="translate(40,0)"><rect y="18" width="14" height="14" fill="#ff3e00" stroke="#ffffff" style="stroke-width: 1px;"></rect><rect y="43.2" width="14" height="14" fill="#3178c6" stroke="#ffffff" style="stroke-width: 1px;"></rect><rect y="68.4" width="14" height="14" fill="#f1e05a" stroke="#ffffff" style="stroke-width: 1px;"></rect><rect y="93.60000000000002" width="14" height="14" fill="#b07219" stroke="#ffffff" style="stroke-width: 1px;"></rect><rect y="118.80000000000001" width="14" height="14" fill="#00ADD8" stroke="#ffffff" style="stroke-width: 1px;"></rect><text x="16.8" y="30" style="fill: #ffffff; font-size: 14px;">Svelte</text><text x="16.8" y="55.2" style="fill: #ffffff; font-size: 14px;">TypeScript</text><text x="16.8" y="80.4" style="fill: #ffffff; font-size: 14px;">JavaScript</text><text x="16.8" y="105.60000000000002" style="fill: #ffffff; font-size: 14px;">Java</text><text x="16.8" y="130.8" style="fill: #ffffff; font-size: 14px;">Go</text></g><g transform="translate( 230, 80 )"><g class="arc"><path d="M3.67394039744206e-15,-60A60,60,0,0,1,9.210390270248947,59.288858237190766L5.372727657645219,34.585167305027944A35,35,0,0,0,2.1431318985078682e-15,-35Z" style="fill: #ff3e00; stroke-width: 2px;" stroke="#ffffff"></path></g><g class="arc"><path d="M9.210390270248947,59.288858237190766A60,60,0,0,1,-58.56275373700618,-13.05388351176647L-34.161606346586936,-7.614765381863775A35,35,0,0,0,5.372727657645219,34.585167305027944Z" style="fill: #3178c6; stroke-width: 2px;" stroke="#ffffff"></path></g><g class="arc"><path d="M-58.56275373700618,-13.05388351176647A60,60,0,0,1,-38.08077710687573,-46.36652256678788L-22.21378664567751,-27.047138163959595A35,35,0,0,0,-34.161606346586936,-7.614765381863775Z" style="fill: #f1e05a; stroke-width: 2px;" stroke="#ffffff"></path></g><g class="arc"><path d="M-38.08077710687573,-46.36652256678788A60,60,0,0,1,-14.09316274685902,-58.321374844824646L-8.221011602334428,-34.02080199281438A35,35,0,0,0,-22.21378664567751,-27.047138163959595Z" style="fill: #b07219; stroke-width: 2px;" stroke="#ffffff"></path></g><g class="arc"><path d="M-14.09316274685902,-58.321374844824646A60,60,0,0,1,-1.1021821192326178e-14,-60L-6.429395695523604e-15,-35A35,35,0,0,0,-8.221011602334428,-34.02080199281438Z" style="fill: #00ADD8; stroke-width: 2px;" stroke="#ffffff"></path></g></g></g></svg>