<svg xmlns="http://www.w3.org/2000/svg" width="340" height="200" viewBox="0 0 340 200"><style>* {
          font-family: Ubuntu, 'Lucida Grande', Arial, Helvetica, sans-serif
            }</style><linearGradient id="grad" x1="0" x2="1" y1="0" y2="1"><stop offset="0%" stop-color="#ff02ef"></stop><stop offset="25%" stop-color="#c901f4"></stop><stop offset="100%" stop-color="#4f00ff"></stop></linearGradient><rect x="1.5" y="1.5" rx="5" ry="5" height="98%" width="98%" fill="url(#grad)" stroke-opacity="1"></rect><text x="30" y="40" style="font-size: 22px; fill: #ffffff;">Top Languages by Commit</text><g transform="translate(0,40)"><g transform="translate(40,0)"><rect y="18" width="14" height="14" fill="#f1e05a" stroke="#ffffff" style="stroke-width: 1px;"></rect><rect y="43.2" width="14" height="14" fill="#b07219" stroke="#ffffff" style="stroke-width: 1px;"></rect><rect y="68.4" width="14" height="14" fill="#3178c6" stroke="#ffffff" style="stroke-width: 1px;"></rect><rect y="93.60000000000002" width="14" height="14" fill="#ff5a03" stroke="#ffffff" style="stroke-width: 1px;"></rect><rect y="118.80000000000001" width="14" height="14" fill="#ff3e00" stroke="#ffffff" style="stroke-width: 1px;"></rect><text x="16.8" y="30" style="fill: #ffffff; font-size: 14px;">JavaScript</text><text x="16.8" y="55.2" style="fill: #ffffff; font-size: 14px;">Java</text><text x="16.8" y="80.4" style="fill: #ffffff; font-size: 14px;">TypeScript</text><text x="16.8" y="105.60000000000002" style="fill: #ffffff; font-size: 14px;">Astro</text><text x="16.8" y="130.8" style="fill: #ffffff; font-size: 14px;">Svelte</text></g><g transform="translate( 230, 80 )"><g class="arc"><path d="M3.67394039744206e-15,-60A60,60,0,1,1,-19.337769037993304,56.798333502253634L-11.280365272162761,33.132361209647954A35,35,0,1,0,2.1431318985078682e-15,-35Z" style="fill: #f1e05a; stroke-width: 2px;" stroke="#ffffff"></path></g><g class="arc"><path d="M-19.337769037993304,56.798333502253634A60,60,0,0,1,-59.51004204688081,-7.652117065131593L-34.71419119401381,-4.463734954660096A35,35,0,0,0,-11.280365272162761,33.132361209647954Z" style="fill: #b07219; stroke-width: 2px;" stroke="#ffffff"></path></g><g class="arc"><path d="M-59.51004204688081,-7.652117065131593A60,60,0,0,1,-8.082687733551685,-59.45309208949433L-4.7149011779051495,-34.68097038553836A35,35,0,0,0,-34.71419119401381,-4.463734954660096Z" style="fill: #3178c6; stroke-width: 2px;" stroke="#ffffff"></path></g><g class="arc"><path d="M-8.082687733551685,-59.45309208949433A60,60,0,0,1,-4.050584811501964,-59.86311688080424L-2.3628411400428124,-34.92015151380247A35,35,0,0,0,-4.7149011779051495,-34.68097038553836Z" style="fill: #ff5a03; stroke-width: 2px;" stroke="#ffffff"></path></g><g class="arc"><path d="M-4.050584811501964,-59.86311688080424A60,60,0,0,1,-6.431252637433369e-14,-60L-3.7515640385027985e-14,-35A35,35,0,0,0,-2.3628411400428124,-34.92015151380247Z" style="fill: #ff3e00; stroke-width: 2px;" stroke="#ffffff"></path></g></g></g></svg>