<svg xmlns="http://www.w3.org/2000/svg" width="340" height="200" viewBox="0 0 340 200"><style>* {
          font-family: Ubuntu, 'Lucida Grande', Arial, Helvetica, sans-serif
            }</style><linearGradient id="grad" x1="0" x2="1" y1="0" y2="1"><stop offset="0%" stop-color="#ff02ef"></stop><stop offset="25%" stop-color="#c901f4"></stop><stop offset="100%" stop-color="#4f00ff"></stop></linearGradient><rect x="1.5" y="1.5" rx="5" ry="5" height="98%" width="98%" fill="url(#grad)" stroke-opacity="1"></rect><text x="30" y="40" style="font-size: 22px; fill: #ffffff;">Top Languages by Commit</text><g transform="translate(0,40)"><g transform="translate(40,0)"><rect y="18" width="14" height="14" fill="#3178c6" stroke="#ffffff" style="stroke-width: 1px;"></rect><rect y="43.2" width="14" height="14" fill="#f1e05a" stroke="#ffffff" style="stroke-width: 1px;"></rect><rect y="68.4" width="14" height="14" fill="#ff3e00" stroke="#ffffff" style="stroke-width: 1px;"></rect><rect y="93.60000000000002" width="14" height="14" fill="#b07219" stroke="#ffffff" style="stroke-width: 1px;"></rect><rect y="118.80000000000001" width="14" height="14" fill="#f34b7d" stroke="#ffffff" style="stroke-width: 1px;"></rect><text x="16.8" y="30" style="fill: #ffffff; font-size: 14px;">TypeScript</text><text x="16.8" y="55.2" style="fill: #ffffff; font-size: 14px;">JavaScript</text><text x="16.8" y="80.4" style="fill: #ffffff; font-size: 14px;">Svelte</text><text x="16.8" y="105.60000000000002" style="fill: #ffffff; font-size: 14px;">Java</text><text x="16.8" y="130.8" style="fill: #ffffff; font-size: 14px;">C++</text></g><g transform="translate( 230, 80 )"><g class="arc"><path d="M3.67394039744206e-15,-60A60,60,0,0,1,5.2879494938161224,59.76652566571734L3.0846372047260715,34.86380663833511A35,35,0,0,0,2.1431318985078682e-15,-35Z" style="fill: #3178c6; stroke-width: 2px;" stroke="#ffffff"></path></g><g class="arc"><path d="M5.2879494938161224,59.76652566571734A60,60,0,0,1,-59.962623735718694,2.1174878343511607L-34.978197179169236,1.2352012367048437A35,35,0,0,0,3.0846372047260715,34.86380663833511Z" style="fill: #f1e05a; stroke-width: 2px;" stroke="#ffffff"></path></g><g class="arc"><path d="M-59.962623735718694,2.1174878343511607A60,60,0,0,1,-26.576887391400504,-53.7928346212097L-15.503184311650294,-31.379153529038994A35,35,0,0,0,-34.978197179169236,1.2352012367048437Z" style="fill: #ff3e00; stroke-width: 2px;" stroke="#ffffff"></path></g><g class="arc"><path d="M-26.576887391400504,-53.7928346212097A60,60,0,0,1,-7.393903613829527,-59.542675362712735L-4.313110441400557,-34.733227294915764A35,35,0,0,0,-15.503184311650294,-31.379153529038994Z" style="fill: #b07219; stroke-width: 2px;" stroke="#ffffff"></path></g><g class="arc"><path d="M-7.393903613829527,-59.542675362712735A60,60,0,0,1,-1.1021821192326178e-14,-60L-6.429395695523604e-15,-35A35,35,0,0,0,-4.313110441400557,-34.733227294915764Z" style="fill: #f34b7d; stroke-width: 2px;" stroke="#ffffff"></path></g></g></g></svg>