<svg xmlns="http://www.w3.org/2000/svg" width="340" height="200" viewBox="0 0 340 200"><style>* {
          font-family: Ubuntu, 'Lucida Grande', Arial, Helvetica, sans-serif
            }</style><linearGradient id="grad" x1="0" x2="1" y1="0" y2="1"><stop offset="0%" stop-color="#ff02ef"></stop><stop offset="25%" stop-color="#c901f4"></stop><stop offset="100%" stop-color="#4f00ff"></stop></linearGradient><rect x="1.5" y="1.5" rx="5" ry="5" height="98%" width="98%" fill="url(#grad)" stroke-opacity="1"></rect><text x="30" y="40" style="font-size: 22px; fill: #ffffff;">Top Languages by Commit</text><g transform="translate(0,40)"><g transform="translate(40,0)"><rect y="18" width="14" height="14" fill="#ff3e00" stroke="#ffffff" style="stroke-width: 1px;"></rect><rect y="43.2" width="14" height="14" fill="#3178c6" stroke="#ffffff" style="stroke-width: 1px;"></rect><rect y="68.4" width="14" height="14" fill="#f1e05a" stroke="#ffffff" style="stroke-width: 1px;"></rect><rect y="93.60000000000002" width="14" height="14" fill="#f34b7d" stroke="#ffffff" style="stroke-width: 1px;"></rect><rect y="118.80000000000001" width="14" height="14" fill="#e34c26" stroke="#ffffff" style="stroke-width: 1px;"></rect><text x="16.8" y="30" style="fill: #ffffff; font-size: 14px;">Svelte</text><text x="16.8" y="55.2" style="fill: #ffffff; font-size: 14px;">TypeScript</text><text x="16.8" y="80.4" style="fill: #ffffff; font-size: 14px;">JavaScript</text><text x="16.8" y="105.60000000000002" style="fill: #ffffff; font-size: 14px;">C++</text><text x="16.8" y="130.8" style="fill: #ffffff; font-size: 14px;">HTML</text></g><g transform="translate( 230, 80 )"><g class="arc"><path d="M3.67394039744206e-15,-60A60,60,0,1,1,-16.309804334180573,57.74071598604181L-9.514052528272,33.682084325191056A35,35,0,1,0,2.1431318985078682e-15,-35Z" style="fill: #ff3e00; stroke-width: 2px;" stroke="#ffffff"></path></g><g class="arc"><path d="M-16.309804334180573,57.74071598604181A60,60,0,0,1,-32.21521041893902,-50.61798314496028L-18.79220607771443,-29.527156834560163A35,35,0,0,0,-9.514052528272,33.682084325191056Z" style="fill: #3178c6; stroke-width: 2px;" stroke="#ffffff"></path></g><g class="arc"><path d="M-32.21521041893902,-50.61798314496028A60,60,0,0,1,-12.538053781876494,-58.67535434373424L-7.313864706094622,-34.22729003384497A35,35,0,0,0,-18.79220607771443,-29.527156834560163Z" style="fill: #f1e05a; stroke-width: 2px;" stroke="#ffffff"></path></g><g class="arc"><path d="M-12.538053781876494,-58.67535434373424A60,60,0,0,1,-5.820591171278897,-59.71700526999684L-3.39534484991269,-34.83491974083149A35,35,0,0,0,-7.313864706094622,-34.22729003384497Z" style="fill: #f34b7d; stroke-width: 2px;" stroke="#ffffff"></path></g><g class="arc"><path d="M-5.820591171278897,-59.71700526999684A60,60,0,0,1,-1.1021821192326178e-14,-60L-6.429395695523604e-15,-35A35,35,0,0,0,-3.39534484991269,-34.83491974083149Z" style="fill: #e34c26; stroke-width: 2px;" stroke="#ffffff"></path></g></g></g></svg>