<svg xmlns="http://www.w3.org/2000/svg" width="340" height="200" viewBox="0 0 340 200"><style>* {
          font-family: Ubuntu, 'Lucida Grande', Arial, Helvetica, sans-serif
            }</style><linearGradient id="grad" x1="0" x2="1" y1="0" y2="1"><stop offset="0%" stop-color="#ff02ef"></stop><stop offset="25%" stop-color="#c901f4"></stop><stop offset="100%" stop-color="#4f00ff"></stop></linearGradient><rect x="1.5" y="1.5" rx="5" ry="5" height="98%" width="98%" fill="url(#grad)" stroke-opacity="1"></rect><text x="30" y="40" style="font-size: 22px; fill: #ffffff;">Top Languages by Commit</text><g transform="translate(0,40)"><g transform="translate(40,0)"><rect y="18" width="14" height="14" fill="#b07219" stroke="#ffffff" style="stroke-width: 1px;"></rect><rect y="43.2" width="14" height="14" fill="#f1e05a" stroke="#ffffff" style="stroke-width: 1px;"></rect><rect y="68.4" width="14" height="14" fill="#3178c6" stroke="#ffffff" style="stroke-width: 1px;"></rect><rect y="93.60000000000002" width="14" height="14" fill="#ff3e00" stroke="#ffffff" style="stroke-width: 1px;"></rect><rect y="118.80000000000001" width="14" height="14" fill="#89e051" stroke="#ffffff" style="stroke-width: 1px;"></rect><text x="16.8" y="30" style="fill: #ffffff; font-size: 14px;">Java</text><text x="16.8" y="55.2" style="fill: #ffffff; font-size: 14px;">JavaScript</text><text x="16.8" y="80.4" style="fill: #ffffff; font-size: 14px;">TypeScript</text><text x="16.8" y="105.60000000000002" style="fill: #ffffff; font-size: 14px;">Svelte</text><text x="16.8" y="130.8" style="fill: #ffffff; font-size: 14px;">Shell</text></g><g transform="translate( 230, 80 )"><g class="arc"><path d="M3.67394039744206e-15,-60A60,60,0,0,1,34.10501447686256,49.36444051676262L19.894591778169826,28.795923634778195A35,35,0,0,0,2.1431318985078682e-15,-35Z" style="fill: #b07219; stroke-width: 2px;" stroke="#ffffff"></path></g><g class="arc"><path d="M34.10501447686256,49.36444051676262A60,60,0,0,1,-58.23802540394431,-14.43372429588207L-33.97218148563418,-8.419672505931208A35,35,0,0,0,19.894591778169826,28.795923634778195Z" style="fill: #f1e05a; stroke-width: 2px;" stroke="#ffffff"></path></g><g class="arc"><path d="M-58.23802540394431,-14.43372429588207A60,60,0,0,1,-25.026074855964836,-54.531601638899666L-14.598543665979488,-31.810100956024804A35,35,0,0,0,-33.97218148563418,-8.419672505931208Z" style="fill: #3178c6; stroke-width: 2px;" stroke="#ffffff"></path></g><g class="arc"><path d="M-25.026074855964836,-54.531601638899666A60,60,0,0,1,-0.44508578613449196,-59.99834913264682L-0.2596333752451203,-34.999036994043976A35,35,0,0,0,-14.598543665979488,-31.810100956024804Z" style="fill: #ff3e00; stroke-width: 2px;" stroke="#ffffff"></path></g><g class="arc"><path d="M-0.44508578613449196,-59.99834913264682A60,60,0,0,1,4.226888398968133e-14,-60L2.4656848993980778e-14,-35A35,35,0,0,0,-0.2596333752451203,-34.999036994043976Z" style="fill: #89e051; stroke-width: 2px;" stroke="#ffffff"></path></g></g></g></svg>