<svg xmlns="http://www.w3.org/2000/svg" width="340" height="200" viewBox="0 0 340 200"><style>* {
          font-family: Ubuntu, 'Lucida Grande', Arial, Helvetica, sans-serif
            }</style><linearGradient id="grad" x1="0" x2="1" y1="0" y2="1"><stop offset="0%" stop-color="#ff02ef"></stop><stop offset="25%" stop-color="#c901f4"></stop><stop offset="100%" stop-color="#4f00ff"></stop></linearGradient><rect x="1.5" y="1.5" rx="5" ry="5" height="98%" width="98%" fill="url(#grad)" stroke-opacity="1"></rect><text x="30" y="40" style="font-size: 22px; fill: #ffffff;">Top Languages by Commit</text><g transform="translate(0,40)"><g transform="translate(40,0)"><rect y="18" width="14" height="14" fill="#3178c6" stroke="#ffffff" style="stroke-width: 1px;"></rect><rect y="43.2" width="14" height="14" fill="#f1e05a" stroke="#ffffff" style="stroke-width: 1px;"></rect><rect y="68.4" width="14" height="14" fill="#b07219" stroke="#ffffff" style="stroke-width: 1px;"></rect><rect y="93.60000000000002" width="14" height="14" fill="#e34c26" stroke="#ffffff" style="stroke-width: 1px;"></rect><rect y="118.80000000000001" width="14" height="14" fill="#41b883" stroke="#ffffff" style="stroke-width: 1px;"></rect><text x="16.8" y="30" style="fill: #ffffff; font-size: 14px;">TypeScript</text><text x="16.8" y="55.2" style="fill: #ffffff; font-size: 14px;">JavaScript</text><text x="16.8" y="80.4" style="fill: #ffffff; font-size: 14px;">Java</text><text x="16.8" y="105.60000000000002" style="fill: #ffffff; font-size: 14px;">HTML</text><text x="16.8" y="130.8" style="fill: #ffffff; font-size: 14px;">Vue</text></g><g transform="translate( 230, 80 )"><g class="arc"><path d="M3.67394039744206e-15,-60A60,60,0,1,1,-2.5672753797536196,59.94505064744304L-1.497577304856278,34.96794621100844A35,35,0,1,0,2.1431318985078682e-15,-35Z" style="fill: #3178c6; stroke-width: 2px;" stroke="#ffffff"></path></g><g class="arc"><path d="M-2.5672753797536196,59.94505064744304A60,60,0,0,1,-20.145371981731316,-56.51693540628043L-11.751466989343267,-32.96821232033025A35,35,0,0,0,-1.497577304856278,34.96794621100844Z" style="fill: #f1e05a; stroke-width: 2px;" stroke="#ffffff"></path></g><g class="arc"><path d="M-20.145371981731316,-56.51693540628043A60,60,0,0,1,-4.105684177226328,-59.85936315595809L-2.394982436715358,-34.91796184097556A35,35,0,0,0,-11.751466989343267,-32.96821232033025Z" style="fill: #b07219; stroke-width: 2px;" stroke="#ffffff"></path></g><g class="arc"><path d="M-4.105684177226328,-59.85936315595809A60,60,0,0,1,-1.0271735754348397,-59.99120697607216L-0.5991845856703231,-34.99487073604209A35,35,0,0,0,-2.394982436715358,-34.91796184097556Z" style="fill: #e34c26; stroke-width: 2px;" stroke="#ffffff"></path></g><g class="arc"><path d="M-1.0271735754348397,-59.99120697607216A60,60,0,0,1,4.226888398968133e-14,-60L2.4656848993980778e-14,-35A35,35,0,0,0,-0.5991845856703231,-34.99487073604209Z" style="fill: #41b883; stroke-width: 2px;" stroke="#ffffff"></path></g></g></g></svg>